<svg xmlns="http://www.w3.org/2000/svg" xmlns:xlink="http://www.w3.org/1999/xlink" width="500" zoomAndPan="magnify" viewBox="0 0 375 374.999991" height="500" preserveAspectRatio="xMidYMid meet" version="1.0"><defs><g/><clipPath id="18d29d2e48"><path d="M 54 66.328125 L 313 66.328125 L 313 306 L 54 306 Z M 54 66.328125 " clip-rule="nonzero"/></clipPath><clipPath id="f1e8e686ac"><path d="M 263.410156 85.859375 C 238.644531 70.265625 232.007812 69.550781 202.910156 66.328125 C 136.199219 67.121094 82.121094 105.65625 61.1875 169.011719 C 54.023438 190.683594 52.121094 214.921875 60.527344 236.144531 C 71.574219 264.03125 99.035156 282.929688 128.058594 290.539062 C 157.078125 298.179688 189.03125 308.671875 218.792969 305.050781 C 242 302.222656 265.179688 285.253906 282.546875 269.605469 C 294.070312 259.21875 301.257812 244.816406 306.070312 230.066406 C 322.878906 178.738281 309.109375 114.671875 263.410156 85.859375 " clip-rule="nonzero"/></clipPath></defs><g clip-path="url(#18d29d2e48)"><g clip-path="url(#f1e8e686ac)"><path fill="#6064b8" d="M 52.121094 66.328125 L 322.773438 66.328125 L 322.773438 308.699219 L 52.121094 308.699219 Z M 52.121094 66.328125 " fill-opacity="1" fill-rule="nonzero"/></g></g><g fill="#ffffff" fill-opacity="1"><g transform="translate(114.888572, 204.749987)"><g><path d="M 16.6875 -11.71875 C 16.6875 -10.925781 16.628906 -10.019531 16.515625 -9 C 16.398438 -7.976562 16.101562 -6.953125 15.625 -5.921875 C 15.144531 -4.890625 14.363281 -3.9375 13.28125 -3.0625 C 12.207031 -2.195312 10.78125 -1.53125 9 -1.0625 C 7.21875 -0.59375 5.082031 -0.359375 2.59375 -0.359375 C 2.28125 -0.359375 1.957031 -0.359375 1.625 -0.359375 L 0.5625 -5 C 1.414062 -5.050781 2.441406 -5.289062 3.640625 -5.71875 C 4.847656 -6.144531 5.921875 -6.722656 6.859375 -7.453125 C 7.796875 -8.179688 8.300781 -9.050781 8.375 -10.0625 L 8.375 -31.59375 L 16.6875 -31.59375 Z M 16.6875 -11.71875 "/></g></g></g><g fill="#ffffff" fill-opacity="1"><g transform="translate(132.406569, 204.749987)"><g><path d="M 11.6875 -0.734375 C 8.019531 -0.898438 5.253906 -1.847656 3.390625 -3.578125 C 1.535156 -5.316406 0.609375 -8.078125 0.609375 -11.859375 C 0.597656 -12.671875 0.59375 -13.503906 0.59375 -14.359375 C 0.59375 -14.796875 0.59375 -15.453125 0.59375 -16.328125 C 0.601562 -17.203125 0.742188 -18.253906 1.015625 -19.484375 C 1.296875 -20.710938 1.8125 -21.8125 2.5625 -22.78125 C 3.3125 -23.757812 4.414062 -24.539062 5.875 -25.125 C 7.34375 -25.707031 9.289062 -26 11.71875 -26 C 13.726562 -26 15.363281 -25.644531 16.625 -24.9375 C 17.882812 -24.226562 18.851562 -23.316406 19.53125 -22.203125 C 20.207031 -21.097656 20.671875 -19.921875 20.921875 -18.671875 C 21.171875 -17.429688 21.296875 -16.257812 21.296875 -15.15625 C 21.296875 -14.050781 21.25 -13.144531 21.15625 -12.4375 C 21.0625 -11.726562 21.015625 -11.375 21.015625 -11.375 L 6.96875 -11.375 C 6.9375 -11.144531 6.921875 -10.921875 6.921875 -10.703125 C 6.921875 -9.609375 7.3125 -8.738281 8.09375 -8.09375 C 8.882812 -7.445312 9.640625 -7.113281 10.359375 -7.09375 C 11.085938 -7.070312 11.492188 -7.0625 11.578125 -7.0625 C 12.847656 -7.0625 14.132812 -7.363281 15.4375 -7.96875 C 16.75 -8.570312 17.796875 -9.503906 18.578125 -10.765625 L 21.71875 -8.046875 C 21.71875 -8.046875 21.671875 -7.796875 21.578125 -7.296875 C 21.484375 -6.804688 21.265625 -6.195312 20.921875 -5.46875 C 20.585938 -4.738281 20.054688 -4.007812 19.328125 -3.28125 C 18.609375 -2.5625 17.625 -1.957031 16.375 -1.46875 C 15.132812 -0.976562 13.570312 -0.734375 11.6875 -0.734375 Z M 14.65625 -16.765625 C 14.65625 -16.828125 14.65625 -16.882812 14.65625 -16.9375 C 14.65625 -17.34375 14.550781 -17.8125 14.34375 -18.34375 C 14.144531 -18.882812 13.757812 -19.375 13.1875 -19.8125 C 12.613281 -20.25 11.832031 -20.476562 10.84375 -20.5 C 9.84375 -20.445312 9.078125 -20.160156 8.546875 -19.640625 C 8.015625 -19.117188 7.648438 -18.578125 7.453125 -18.015625 C 7.253906 -17.460938 7.15625 -17.0625 7.15625 -16.8125 C 7.15625 -16.789062 7.15625 -16.773438 7.15625 -16.765625 Z M 14.65625 -16.765625 "/></g></g></g><g fill="#ffffff" fill-opacity="1"><g transform="translate(155.40189, 204.749987)"><g><path d="M 1.140625 -6.5625 C 1.859375 -6.625 2.878906 -6.753906 4.203125 -6.953125 C 5.535156 -7.148438 6.75 -7.476562 7.84375 -7.9375 C 8.40625 -8.164062 8.878906 -8.394531 9.265625 -8.625 C 9.648438 -8.851562 9.84375 -9.070312 9.84375 -9.28125 C 9.84375 -9.3125 9.832031 -9.390625 9.8125 -9.515625 C 9.789062 -9.640625 9.378906 -9.8125 8.578125 -10.03125 C 4.984375 -11.351562 2.675781 -12.847656 1.65625 -14.515625 C 0.644531 -16.191406 0.140625 -17.625 0.140625 -18.8125 C 0.140625 -19.601562 0.425781 -20.675781 1 -22.03125 C 1.570312 -23.382812 2.863281 -24.410156 4.875 -25.109375 C 6.894531 -25.804688 8.78125 -26.15625 10.53125 -26.15625 C 12.28125 -26.15625 14.234375 -25.921875 16.390625 -25.453125 L 15.828125 -20.5 C 15.179688 -20.414062 14.460938 -20.375 13.671875 -20.375 C 13.398438 -20.375 13.15625 -20.378906 12.9375 -20.390625 C 12.71875 -20.398438 12.546875 -20.40625 12.421875 -20.40625 C 11.460938 -20.40625 10.535156 -20.269531 9.640625 -20 C 8.753906 -19.726562 8.144531 -19.035156 7.8125 -17.921875 C 8.050781 -17.398438 8.648438 -16.96875 9.609375 -16.625 C 10.566406 -16.28125 11.628906 -15.859375 12.796875 -15.359375 C 13.960938 -14.859375 14.96875 -14.125 15.8125 -13.15625 C 16.664062 -12.195312 17.09375 -10.84375 17.09375 -9.09375 C 17.019531 -6.914062 16.445312 -5.222656 15.375 -4.015625 C 14.300781 -2.804688 12.945312 -1.960938 11.3125 -1.484375 C 9.675781 -1.015625 7.96875 -0.78125 6.1875 -0.78125 C 6.101562 -0.78125 5.566406 -0.785156 4.578125 -0.796875 C 3.597656 -0.816406 2.269531 -0.976562 0.59375 -1.28125 Z M 1.140625 -6.5625 "/></g></g></g><g fill="#ffffff" fill-opacity="1"><g transform="translate(173.014324, 204.749987)"><g><path d="M 0.546875 -18.375 L 0.546875 -25.171875 L 3.40625 -29.703125 C 3.40625 -30.910156 3.40625 -31.515625 3.40625 -31.515625 L 10.4375 -31.515625 L 10.4375 -25.171875 L 14.5625 -25.171875 L 14.5625 -18.375 L 10.4375 -18.375 L 10.4375 -10.390625 C 10.4375 -10.335938 10.4375 -10.296875 10.4375 -10.265625 C 10.4375 -8.503906 10.769531 -7.238281 11.4375 -6.46875 C 12.101562 -5.695312 12.90625 -5.234375 13.84375 -5.078125 L 13.84375 0.09375 C 12.84375 0.375 11.910156 0.515625 11.046875 0.515625 C 10.015625 0.515625 8.882812 0.222656 7.65625 -0.359375 C 6.4375 -0.941406 5.421875 -2.039062 4.609375 -3.65625 C 3.804688 -5.28125 3.40625 -7.09375 3.40625 -9.09375 C 3.40625 -9.164062 3.40625 -9.242188 3.40625 -9.328125 C 3.40625 -15.359375 3.40625 -18.375 3.40625 -18.375 Z M 0.546875 -18.375 "/></g></g></g><g fill="#ffffff" fill-opacity="1"><g transform="translate(187.958922, 204.749987)"><g><path d="M 14.171875 -1.1875 C 11.566406 -1.1875 9.269531 -1.757812 7.28125 -2.90625 C 5.289062 -4.050781 3.734375 -5.738281 2.609375 -7.96875 C 1.492188 -10.207031 0.9375 -12.972656 0.9375 -16.265625 C 0.9375 -18.222656 1.175781 -20.128906 1.65625 -21.984375 C 2.144531 -23.835938 2.921875 -25.507812 3.984375 -27 C 5.046875 -28.5 6.453125 -29.695312 8.203125 -30.59375 C 9.960938 -31.5 12.109375 -31.972656 14.640625 -32.015625 C 16.742188 -32.015625 18.753906 -31.601562 20.671875 -30.78125 C 22.585938 -29.957031 24.023438 -28.921875 24.984375 -27.671875 C 25.941406 -26.429688 26.421875 -25.171875 26.421875 -23.890625 C 26.421875 -23.472656 26.375 -23.035156 26.28125 -22.578125 L 19.921875 -21.609375 C 19.421875 -22.597656 18.722656 -23.472656 17.828125 -24.234375 C 16.929688 -25.003906 16.171875 -25.4375 15.546875 -25.53125 C 14.921875 -25.632812 14.515625 -25.6875 14.328125 -25.6875 C 13.492188 -25.6875 12.703125 -25.378906 11.953125 -24.765625 C 10.085938 -23.097656 9.015625 -21.523438 8.734375 -20.046875 C 8.453125 -18.578125 8.3125 -17.453125 8.3125 -16.671875 C 8.3125 -15.441406 8.570312 -14.082031 9.09375 -12.59375 C 9.613281 -11.101562 10.347656 -10.066406 11.296875 -9.484375 C 12.253906 -8.910156 13.054688 -8.625 13.703125 -8.625 C 14.484375 -8.625 15.304688 -8.878906 16.171875 -9.390625 C 17.398438 -10.117188 18.585938 -11.601562 19.734375 -13.84375 L 19.734375 -13.90625 L 12.828125 -14 L 12.828125 -19.6875 L 27.25 -19.5 L 27.25 -13.8125 L 26.5625 -13.8125 L 26.5625 -0.828125 L 19.734375 -0.828125 L 19.734375 -3.3125 C 18.160156 -1.9375 16.304688 -1.226562 14.171875 -1.1875 Z M 14.171875 -1.1875 "/></g></g></g><g fill="#ffffff" fill-opacity="1"><g transform="translate(216.620442, 204.749987)"><g><path d="M 11.6875 -0.734375 C 8.019531 -0.898438 5.253906 -1.847656 3.390625 -3.578125 C 1.535156 -5.316406 0.609375 -8.078125 0.609375 -11.859375 C 0.597656 -12.671875 0.59375 -13.503906 0.59375 -14.359375 C 0.59375 -14.796875 0.59375 -15.453125 0.59375 -16.328125 C 0.601562 -17.203125 0.742188 -18.253906 1.015625 -19.484375 C 1.296875 -20.710938 1.8125 -21.8125 2.5625 -22.78125 C 3.3125 -23.757812 4.414062 -24.539062 5.875 -25.125 C 7.34375 -25.707031 9.289062 -26 11.71875 -26 C 13.726562 -26 15.363281 -25.644531 16.625 -24.9375 C 17.882812 -24.226562 18.851562 -23.316406 19.53125 -22.203125 C 20.207031 -21.097656 20.671875 -19.921875 20.921875 -18.671875 C 21.171875 -17.429688 21.296875 -16.257812 21.296875 -15.15625 C 21.296875 -14.050781 21.25 -13.144531 21.15625 -12.4375 C 21.0625 -11.726562 21.015625 -11.375 21.015625 -11.375 L 6.96875 -11.375 C 6.9375 -11.144531 6.921875 -10.921875 6.921875 -10.703125 C 6.921875 -9.609375 7.3125 -8.738281 8.09375 -8.09375 C 8.882812 -7.445312 9.640625 -7.113281 10.359375 -7.09375 C 11.085938 -7.070312 11.492188 -7.0625 11.578125 -7.0625 C 12.847656 -7.0625 14.132812 -7.363281 15.4375 -7.96875 C 16.75 -8.570312 17.796875 -9.503906 18.578125 -10.765625 L 21.71875 -8.046875 C 21.71875 -8.046875 21.671875 -7.796875 21.578125 -7.296875 C 21.484375 -6.804688 21.265625 -6.195312 20.921875 -5.46875 C 20.585938 -4.738281 20.054688 -4.007812 19.328125 -3.28125 C 18.609375 -2.5625 17.625 -1.957031 16.375 -1.46875 C 15.132812 -0.976562 13.570312 -0.734375 11.6875 -0.734375 Z M 14.65625 -16.765625 C 14.65625 -16.828125 14.65625 -16.882812 14.65625 -16.9375 C 14.65625 -17.34375 14.550781 -17.8125 14.34375 -18.34375 C 14.144531 -18.882812 13.757812 -19.375 13.1875 -19.8125 C 12.613281 -20.25 11.832031 -20.476562 10.84375 -20.5 C 9.84375 -20.445312 9.078125 -20.160156 8.546875 -19.640625 C 8.015625 -19.117188 7.648438 -18.578125 7.453125 -18.015625 C 7.253906 -17.460938 7.15625 -17.0625 7.15625 -16.8125 C 7.15625 -16.789062 7.15625 -16.773438 7.15625 -16.765625 Z M 14.65625 -16.765625 "/></g></g></g><g fill="#ffffff" fill-opacity="1"><g transform="translate(239.615764, 204.749987)"><g><path d="M 0.796875 -25.4375 L 7.609375 -25.4375 L 7.609375 -25.40625 C 9.304688 -26.164062 11.050781 -26.609375 12.84375 -26.734375 C 13.050781 -26.742188 13.253906 -26.75 13.453125 -26.75 C 15.097656 -26.75 16.550781 -26.257812 17.8125 -25.28125 C 19.082031 -24.3125 19.738281 -22.488281 19.78125 -19.8125 L 19.734375 -0.65625 L 12.96875 -0.65625 L 13.03125 -15.625 C 13.03125 -15.675781 13.03125 -15.726562 13.03125 -15.78125 C 13.03125 -17.9375 12.734375 -19.238281 12.140625 -19.6875 C 11.554688 -20.132812 11.003906 -20.359375 10.484375 -20.359375 C 10.054688 -20.359375 9.59375 -20.238281 9.09375 -20 C 8.570312 -19.75 8.078125 -19.441406 7.609375 -19.078125 L 7.609375 -0.65625 L 0.796875 -0.65625 Z M 0.796875 -25.4375 "/></g></g></g></svg>